<?xml version="1.0" encoding="UTF-8"?>
<svg version="1.1" xmlns="http://www.w3.org/2000/svg" width="320" height="320">
<path d="M0 0 C0.79141388 0.00087616 1.58282776 0.00175232 2.39822388 0.00265503 C34.97450922 0.12126349 65.81527375 9.62073786 92.5625 28.375 C93.58214844 29.07625 94.60179687 29.7775 95.65234375 30.5 C111.95084081 42.3385048 125.94385176 57.28497139 136.5625 74.375 C136.97145508 75.02500977 137.38041016 75.67501953 137.80175781 76.34472656 C153.47835097 101.61767958 161.01778696 130.21686531 160.9375 159.8125 C160.93662384 160.60391388 160.93574768 161.39532776 160.93484497 162.21072388 C160.81623651 194.78700922 151.31676214 225.62777375 132.5625 252.375 C131.86125 253.39464844 131.16 254.41429687 130.4375 255.46484375 C118.5989952 271.76334081 103.65252861 285.75635176 86.5625 296.375 C85.91249023 296.78395508 85.26248047 297.19291016 84.59277344 297.61425781 C59.31982042 313.29085097 30.72063469 320.83028696 1.125 320.75 C0.33358612 320.74912384 -0.45782776 320.74824768 -1.27322388 320.74734497 C-33.84950922 320.62873651 -64.69027375 311.12926214 -91.4375 292.375 C-92.45714844 291.67375 -93.47679688 290.9725 -94.52734375 290.25 C-110.82584081 278.4114952 -124.81885176 263.46502861 -135.4375 246.375 C-135.84645508 245.72499023 -136.25541016 245.07498047 -136.67675781 244.40527344 C-152.35335097 219.13232042 -159.89278696 190.53313469 -159.8125 160.9375 C-159.81162384 160.14608612 -159.81074768 159.35467224 -159.80984497 158.53927612 C-159.69123651 125.96299078 -150.19176214 95.12222625 -131.4375 68.375 C-130.73625 67.35535156 -130.035 66.33570312 -129.3125 65.28515625 C-117.4739952 48.98665919 -102.52752861 34.99364824 -85.4375 24.375 C-84.78749023 23.96604492 -84.13748047 23.55708984 -83.46777344 23.13574219 C-58.19482042 7.45914903 -29.59563469 -0.08028696 0 0 Z " fill="#020202" transform="translate(159.4375,-0.37499999999999994)"/>
<path d="M0 0 C0.83273438 0.40605469 1.66546875 0.81210937 2.5234375 1.23046875 C24.49810305 12.46966015 40.56440931 30.00189596 49.125 53.09765625 C51.10023416 59.6494374 51.15359017 65.97593589 51.16113281 72.75952148 C51.16609772 73.83179993 51.17106262 74.90407837 51.17617798 76.0088501 C51.19075055 79.54627123 51.19759237 83.08364757 51.203125 86.62109375 C51.20887916 89.08439637 51.21463686 91.54769898 51.22039795 94.01100159 C51.23089304 99.17148039 51.23674591 104.33194367 51.24023438 109.49243164 C51.24572515 116.10109265 51.26977217 122.70954827 51.29820633 129.3181448 C51.31683594 134.40453186 51.32203842 139.49086938 51.32357025 144.57728767 C51.32659503 147.01371449 51.33461761 149.45014047 51.34775543 151.88653374 C51.36482709 155.2948763 51.362933 158.70271591 51.35644531 162.11108398 C51.3656601 163.11442276 51.37487488 164.11776154 51.3843689 165.15150452 C51.32744381 174.70781613 47.88401817 181.51617965 42 189 C39.76297755 191.19210232 37.4759585 193.06875237 35 195 C34.34 194.67 33.68 194.34 33 194 C33.39832031 193.5153125 33.79664063 193.030625 34.20703125 192.53125 C34.73683594 191.8609375 35.26664063 191.190625 35.8125 190.5 C36.59560547 189.52546875 36.59560547 189.52546875 37.39453125 188.53125 C41.64770663 181.82551364 42.44307886 175.78995142 42.40405273 168.04248047 C42.41091599 167.07868973 42.41777924 166.11489899 42.42485046 165.12190247 C42.44306549 161.95351176 42.43928652 158.78561907 42.43359375 155.6171875 C42.43815987 153.39771363 42.44346672 151.17824118 42.44947815 148.95877075 C42.45840028 144.310346 42.45599837 139.66209311 42.44604492 135.01367188 C42.43458919 129.08943409 42.45471964 123.1657954 42.48396206 117.24163628 C42.50241553 112.65677181 42.50201288 108.07204825 42.49632454 103.48715591 C42.49617227 101.3049244 42.50213787 99.12268275 42.51461601 96.94048691 C42.57369136 84.91047445 42.25228574 74.38750273 38 63 C37.68876694 62.07178436 37.37753387 61.14356873 37.05686951 60.18722534 C34.69013137 53.22159709 30.50682246 47.7400777 26 42 C25.55527344 41.40058594 25.11054688 40.80117187 24.65234375 40.18359375 C21.40104353 35.96241415 17.32433368 33.02596054 13 30 C14.74804379 33.49608758 16.87649204 35.9171703 19.6875 38.5625 C28.63256747 47.35957923 33.34750872 57.22737789 37 69 C37.33 69.99 37.66 70.98 38 72 C38.09839309 73.4114097 38.14340507 74.82691824 38.15390015 76.24171448 C38.16250061 77.10645889 38.17110107 77.97120331 38.17996216 78.8621521 C38.18635208 80.28112289 38.18635208 80.28112289 38.19287109 81.72875977 C38.20513733 83.2268795 38.20513733 83.2268795 38.21765137 84.75526428 C38.2425031 88.06730552 38.25902371 91.3793038 38.2734375 94.69140625 C38.27876118 95.82356001 38.28408485 96.95571377 38.28956985 98.12217522 C38.31630449 104.11830849 38.33567569 110.11442096 38.35009766 116.1105957 C38.36342154 121.06618775 38.39124581 126.02136655 38.43212891 130.97680664 C38.48153167 136.96496891 38.50622875 142.95275707 38.51332474 148.94111443 C38.52002485 151.21879088 38.53521439 153.49645939 38.55921555 155.77401924 C38.59098091 158.97161005 38.59088592 162.1677701 38.58349609 165.36547852 C38.59990143 166.29728943 38.61630676 167.22910034 38.63320923 168.18914795 C38.55646351 176.34932695 35.46731538 182.08632733 31.1875 188.875 C25.96241449 193.95079736 19.36920101 196.11599023 12.20176697 196.15390015 C10.99204224 196.16250061 9.7823175 196.17110107 8.53593445 196.17996216 C7.19314618 196.18439733 5.85035746 196.18869569 4.50756836 196.19287109 C3.09479573 196.20077408 1.6820251 196.20904316 0.26925659 196.21765137 C-4.37386145 196.24385782 -9.01698843 196.25918177 -13.66015625 196.2734375 C-15.26065005 196.27879853 -16.8611438 196.28417604 -18.4616375 196.28956985 C-25.1228269 196.31120025 -31.7840139 196.32993408 -38.44522953 196.34119225 C-47.97816576 196.35741153 -57.5106931 196.39053794 -67.04347521 196.44759309 C-73.75276595 196.486373 -80.46194773 196.50583467 -87.17134756 196.51111281 C-91.17474652 196.51475648 -95.17770926 196.52667121 -99.1809864 196.55921555 C-102.95272275 196.58943708 -106.7237622 196.59555863 -110.49559402 196.58383179 C-112.52620753 196.58350814 -114.55677892 196.60788188 -116.5872345 196.63320923 C-124.39481123 196.5803836 -130.55123984 195.64121933 -137 191 C-144.16409187 183.52306264 -146.45373368 176.08262028 -146.40405273 165.95654297 C-146.41091599 164.97178482 -146.41777924 163.98702667 -146.42485046 162.97242737 C-146.44309444 159.72886575 -146.43928238 156.48578926 -146.43359375 153.2421875 C-146.43815847 150.9740483 -146.44346491 148.70591048 -146.44947815 146.43777466 C-146.45840593 141.68502179 -146.45599189 136.93243696 -146.44604492 132.1796875 C-146.43458817 126.11744423 -146.45471834 120.05578632 -146.48396206 113.99361992 C-146.50240069 109.30757007 -146.50201579 104.62165827 -146.49632454 99.93558121 C-146.49617209 97.70228381 -146.5021528 95.46897659 -146.51461601 93.23571396 C-146.62203528 70.82156325 -146.62203528 70.82156325 -142 60 C-141.61158432 59.08338593 -141.22316864 58.16677185 -140.82298279 57.22238159 C-136.6862797 47.93149199 -129.84909145 40.54864311 -122.56640625 33.59375 C-120.90532791 32.06732882 -120.90532791 32.06732882 -120 30 C-136.33762502 39.12984928 -144.01431996 55.31310667 -149.03994751 72.57119751 C-150.2308317 77.39964719 -150.29551564 82.06803265 -150.29052734 87.02099609 C-150.29724457 87.99121201 -150.30396179 88.96142792 -150.31088257 89.96104431 C-150.32978397 93.14856168 -150.33378261 96.33586767 -150.3359375 99.5234375 C-150.34237017 101.75249313 -150.34909888 103.98154792 -150.35610962 106.21060181 C-150.36806223 110.87577267 -150.37179244 115.5408696 -150.37060547 120.20605469 C-150.37040224 126.16652936 -150.39771831 132.12652749 -150.43214989 138.08688927 C-150.45444898 142.68873244 -150.4584421 147.2904614 -150.45738602 151.89235306 C-150.45973689 154.0890632 -150.46853128 156.28577674 -150.48405075 158.48243332 C-150.50377416 161.56202831 -150.49784775 164.64060136 -150.48583984 167.72021484 C-150.49707886 168.61611832 -150.50831787 169.51202179 -150.51989746 170.43507385 C-150.43156866 179.40606687 -147.27935684 186.83515858 -142 194 C-147.76951214 191.43577238 -151.44037414 187.83054785 -154.75 182.5 C-155.34296875 181.5615625 -155.9359375 180.623125 -156.546875 179.65625 C-158.63223683 175.84429827 -159.12438684 172.69966738 -159.14044189 168.38574219 C-159.14615204 167.46361435 -159.15186218 166.54148651 -159.15774536 165.59141541 C-159.15886322 164.58671707 -159.15998108 163.58201874 -159.16113281 162.546875 C-159.16609772 161.48292007 -159.17106262 160.41896515 -159.17617798 159.32276917 C-159.19079575 155.7985062 -159.19760264 152.27428832 -159.203125 148.75 C-159.2088788 146.29581705 -159.21463651 143.84163411 -159.22039795 141.38745117 C-159.23090825 136.23600048 -159.23675006 131.08456538 -159.24023438 125.93310547 C-159.24570504 119.35402461 -159.26970256 112.77515218 -159.29820633 106.19613647 C-159.31689891 101.12241021 -159.32204194 96.04873336 -159.32357025 90.97497559 C-159.3265847 88.55105455 -159.33457211 86.12713413 -159.34775543 83.70324707 C-159.36494666 80.29810114 -159.36290321 76.89345382 -159.35644531 73.48828125 C-159.3656601 72.49977676 -159.37487488 71.51127228 -159.3843689 70.49281311 C-159.32458916 60.35247224 -157.00955831 50.86491873 -152.3125 41.875 C-151.96219727 41.19469727 -151.61189453 40.51439453 -151.25097656 39.81347656 C-148.13736626 33.94584032 -144.51536046 28.8850851 -140 24 C-139.11570312 23.02417969 -138.23140625 22.04835937 -137.3203125 21.04296875 C-130.36092579 13.59588438 -122.85607172 8.00369275 -114 3 C-112.31583984 2.04287109 -112.31583984 2.04287109 -110.59765625 1.06640625 C-101.72052054 -3.661965 -92.70181081 -6.490911 -83 -9 C-81.65035156 -9.35384766 -81.65035156 -9.35384766 -80.2734375 -9.71484375 C-54.54680921 -15.94196049 -23.53272515 -12.11891277 0 0 Z " fill="#0D0D0D" transform="translate(214,56)"/>
<path d="M0 0 C1.1257695 -0.00983414 2.251539 -0.01966827 3.41142273 -0.02980042 C4.64218536 -0.02013245 5.872948 -0.01046448 7.14100647 -0.00050354 C9.09030312 -0.00860802 9.09030312 -0.00860802 11.07897949 -0.01687622 C14.64111804 -0.0308377 18.20277392 -0.01965606 21.76488566 -0.00316501 C25.49415001 0.01068913 29.22338644 0.00422489 32.95266724 0.0007019 C39.2163724 -0.00200028 45.47988596 0.01147478 51.74354553 0.03465271 C58.98155608 0.06125101 66.21924602 0.06301333 73.45728868 0.05126435 C80.42305022 0.04047761 87.38869597 0.04668138 94.35444832 0.06081963 C97.31726893 0.06657287 100.28000462 0.06650195 103.24282646 0.06175423 C107.38224047 0.05608726 111.52117747 0.07532083 115.66053772 0.09715271 C116.88927612 0.09265106 118.11801453 0.08814941 119.38398743 0.08351135 C121.07687141 0.0983683 121.07687141 0.0983683 122.80395508 0.11352539 C123.78231292 0.11595529 124.76067076 0.11838518 125.7686758 0.12088871 C130.1897247 0.74436946 133.62726438 3.09535947 136.46546936 6.50120544 C137.67457431 10.1285203 137.62880871 13.46484553 137.64247131 17.24217224 C137.64904251 18.02955276 137.65561371 18.81693329 137.66238403 19.62817383 C137.68210333 22.23559161 137.69377796 24.84295177 137.70375061 27.45042419 C137.70782614 28.34235788 137.71190166 29.23429157 137.71610069 30.15325356 C137.73695784 34.87625013 137.75125983 39.5992177 137.76063538 44.32225037 C137.77168553 49.19009844 137.80607027 54.05748761 137.84580708 58.92517376 C137.87201139 62.67681705 137.8803307 66.42835176 137.88391685 70.18007851 C137.88877472 71.97374882 137.90036582 73.76741454 137.91895485 75.5609951 C137.94342299 78.07878324 137.9423674 80.59539423 137.93544006 83.11326599 C137.95465515 84.21319382 137.95465515 84.21319382 137.97425842 85.33534241 C137.92025821 90.75278961 136.67806408 95.07864598 133.46546936 99.50120544 C128.14474286 103.76926999 121.35653787 102.92977472 114.85414124 102.90525818 C112.95070702 102.91555305 112.95070702 102.91555305 111.00881958 102.92605591 C107.53980068 102.94395401 104.07103518 102.94282556 100.60198402 102.93711352 C97.70185202 102.93401731 94.80176839 102.9401188 91.90164328 102.94615227 C85.05878243 102.96018438 78.21604647 102.95864673 71.3731842 102.94725037 C64.32142079 102.93576539 57.27003752 102.94985387 50.21832418 102.97664684 C44.15528742 102.99881801 38.09236986 103.0054382 32.02929544 102.99957043 C28.41181231 102.9962036 24.79457294 102.99859761 21.17712402 103.01582146 C17.14343757 103.03419032 13.11048916 103.02008915 9.07679749 103.00291443 C7.88284866 103.0125824 6.68889984 103.02225037 5.45877075 103.0322113 C-4.99142343 102.93894054 -4.99142343 102.93894054 -9.53453064 98.50120544 C-12.64780647 93.89843927 -12.96670792 89.68962126 -12.92271423 84.28025818 C-12.92797119 83.47786713 -12.93322815 82.67547607 -12.93864441 81.84877014 C-12.95179099 79.21057871 -12.9431263 76.57299619 -12.93296814 73.93479919 C-12.93499021 72.09447108 -12.93790277 70.25414374 -12.94166565 68.41381836 C-12.94608159 64.5630681 -12.93968073 60.71252704 -12.92564392 56.86180115 C-12.90854042 51.9298843 -12.91840519 46.99845685 -12.93636131 42.06655788 C-12.9472086 38.26869019 -12.94374867 34.4709383 -12.93597794 30.67306709 C-12.93397917 28.85461939 -12.93642384 27.03616111 -12.9434166 25.21772575 C-12.951048 22.675787 -12.9394041 20.13463819 -12.92271423 17.59275818 C-12.92878693 16.84404953 -12.93485962 16.09534088 -12.94111633 15.32394409 C-12.8714931 9.59096811 -11.36403475 6.69100483 -7.77258015 2.39226341 C-4.97789194 0.03086909 -3.6207079 0.00077482 0 0 Z " fill="#030303" transform="translate(97.53453063964844,128.49879455566406)"/>
<path d="M0 0 C1.09473608 0.83950267 2.1751648 1.69766412 3.25 2.5625 C3.85328125 3.03816406 4.4565625 3.51382813 5.078125 4.00390625 C11.0645191 10.22148224 11.43930058 15.12356921 11.3515625 23.56835938 C11.31804687 24.84517578 11.28453125 26.12199219 11.25 27.4375 C11.23195312 28.74138672 11.21390625 30.04527344 11.1953125 31.38867188 C11.14835957 34.59320909 11.08269464 37.7962189 11 41 C10.40574219 41.0093457 9.81148437 41.01869141 9.19921875 41.02832031 C6.46535355 41.08252993 3.73310801 41.16607278 1 41.25 C0.06542969 41.26417969 -0.86914062 41.27835938 -1.83203125 41.29296875 C-8.63298768 41.53076443 -14.39595782 42.66114784 -19.52294922 47.41088867 C-24.46884981 52.99534451 -25.30124367 58.05884802 -25.32226562 65.3034668 C-25.33219543 66.12694107 -25.34212524 66.95041534 -25.35235596 67.79884338 C-25.38149743 70.51566959 -25.39518726 73.2322621 -25.40625 75.94921875 C-25.41776326 77.84625754 -25.42927859 79.74329632 -25.4407959 81.64033508 C-25.46178828 85.61724934 -25.47349095 89.59408309 -25.48046875 93.57104492 C-25.49141946 98.64740977 -25.53944278 103.72269661 -25.59641266 108.79872417 C-25.63381303 112.71860274 -25.64408443 116.63822574 -25.6471405 120.55826759 C-25.65316378 122.42846366 -25.66911989 124.29865683 -25.69551086 126.16867638 C-26.00489612 139.26313733 -26.00489612 139.26313733 -20.97302246 151.11140442 C-14.16802235 157.62521427 -8.09126863 157.57381659 0.984375 157.50170898 C2.28113159 157.50711197 3.57788818 157.51251495 4.91394043 157.51808167 C8.45537714 157.531992 11.9963256 157.52089816 15.53773499 157.50437045 C19.25269916 157.49047173 22.96763637 157.4969855 26.68261719 157.50050354 C32.92000146 157.50320187 39.15719288 157.48976269 45.39453125 157.46655273 C52.59450661 157.43994527 59.79415965 157.43819725 66.99416733 157.4499411 C73.9348333 157.46073945 80.87538326 157.45451572 87.81604004 157.44038582 C90.76325235 157.43464381 93.71037927 157.43469458 96.65759277 157.43945122 C100.77711375 157.44513209 104.89615785 157.42585554 109.015625 157.40405273 C110.23245972 157.40855438 111.44929443 157.41305603 112.70300293 157.41769409 C120.44255692 157.34967526 125.66991012 156.80030285 131.75 151.6875 C136.32000011 146.22888876 137.44498311 141.55256188 137.40405273 134.55126953 C137.41091599 133.72443665 137.41777924 132.89760376 137.42485046 132.04571533 C137.4430846 129.32457079 137.43928538 126.60400477 137.43359375 123.8828125 C137.43815763 121.98240981 137.44346382 120.08200876 137.44947815 118.18161011 C137.45840295 114.20222258 137.45599382 110.22303579 137.44604492 106.24365234 C137.43456432 101.15723969 137.45475604 96.07152223 137.48396206 90.98520088 C137.50235644 87.06110265 137.502025 83.13716995 137.49632454 79.2130394 C137.49617168 77.33844911 137.5021869 75.46384734 137.51461601 73.58929825 C137.5295832 70.96160239 137.51880708 68.3351771 137.50170898 65.70751953 C137.51137695 64.94154449 137.52104492 64.17556946 137.53100586 63.38638306 C137.44187201 56.80663479 135.22851147 51.84327325 131.1875 46.6875 C124.90515492 41.84111951 118.73724896 41.49610643 111.0625 41.3125 C109.6074707 41.26125977 109.6074707 41.26125977 108.12304688 41.20898438 C105.74881363 41.12711426 103.37492123 41.05776922 101 41 C100.8243308 36.52133633 100.71868089 32.0435693 100.625 27.5625 C100.57472656 26.30244141 100.52445313 25.04238281 100.47265625 23.74414062 C100.34310328 15.47434278 101.23519977 10.12286763 107 4 C109.875 1.4375 109.875 1.4375 112 0 C129.23661242 11.63554688 140.8432901 25.15584063 147 45 C147.33 45.99 147.66 46.98 148 48 C148.09839309 49.4114097 148.14340507 50.82691824 148.15390015 52.24171448 C148.16250061 53.10645889 148.17110107 53.97120331 148.17996216 54.8621521 C148.18635208 56.28112289 148.18635208 56.28112289 148.19287109 57.72875977 C148.20513733 59.2268795 148.20513733 59.2268795 148.21765137 60.75526428 C148.2425031 64.06730552 148.25902371 67.3793038 148.2734375 70.69140625 C148.27876118 71.82356001 148.28408485 72.95571377 148.28956985 74.12217522 C148.31630449 80.11830849 148.33567569 86.11442096 148.35009766 92.1105957 C148.36342154 97.06618775 148.39124581 102.02136655 148.43212891 106.97680664 C148.48153167 112.96496891 148.50622875 118.95275707 148.51332474 124.94111443 C148.52002485 127.21879088 148.53521439 129.49645939 148.55921555 131.77401924 C148.59098091 134.97161005 148.59088592 138.1677701 148.58349609 141.36547852 C148.59990143 142.29728943 148.61630676 143.22910034 148.63320923 144.18914795 C148.55646351 152.34932695 145.46731538 158.08632733 141.1875 164.875 C135.96241449 169.95079736 129.36920101 172.11599023 122.20176697 172.15390015 C120.99204224 172.16250061 119.7823175 172.17110107 118.53593445 172.17996216 C117.19314618 172.18439733 115.85035746 172.18869569 114.50756836 172.19287109 C113.09479573 172.20077408 111.6820251 172.20904316 110.26925659 172.21765137 C105.62613855 172.24385782 100.98301157 172.25918177 96.33984375 172.2734375 C94.73934995 172.27879853 93.1388562 172.28417604 91.5383625 172.28956985 C84.8771731 172.31120025 78.2159861 172.32993408 71.55477047 172.34119225 C62.02183424 172.35741153 52.4893069 172.39053794 42.95652479 172.44759309 C36.24723405 172.486373 29.53805227 172.50583467 22.82865244 172.51111281 C18.82525348 172.51475648 14.82229074 172.52667121 10.8190136 172.55921555 C7.04727725 172.58943708 3.2762378 172.59555863 -0.49559402 172.58383179 C-2.52620753 172.58350814 -4.55677892 172.60788188 -6.5872345 172.63320923 C-14.39481123 172.5803836 -20.55123984 171.64121933 -27 167 C-34.16409187 159.52306264 -36.45373368 152.08262028 -36.40405273 141.95654297 C-36.41091599 140.97178482 -36.41777924 139.98702667 -36.42485046 138.97242737 C-36.44309444 135.72886575 -36.43928238 132.48578926 -36.43359375 129.2421875 C-36.43815847 126.9740483 -36.44346491 124.70591048 -36.44947815 122.43777466 C-36.45840593 117.68502179 -36.45599189 112.93243696 -36.44604492 108.1796875 C-36.43458817 102.11744423 -36.45471834 96.05578632 -36.48396206 89.99361992 C-36.50240069 85.30757007 -36.50201579 80.62165827 -36.49632454 75.93558121 C-36.49617209 73.70228381 -36.5021528 71.46897659 -36.51461601 69.23571396 C-36.62203528 46.82156325 -36.62203528 46.82156325 -32 36 C-31.61174545 35.08354706 -31.22349091 34.16709412 -30.82347107 33.22286987 C-24.72661304 19.53299658 -12.75681468 7.58013626 0 0 Z " fill="#FAFAFA" transform="translate(104,80)"/>
<path d="M0 0 C0.83273438 0.40605469 1.66546875 0.81210937 2.5234375 1.23046875 C24.49810305 12.46966015 40.56440931 30.00189596 49.125 53.09765625 C51.10023416 59.6494374 51.15359017 65.97593589 51.16113281 72.75952148 C51.16609772 73.83179993 51.17106262 74.90407837 51.17617798 76.0088501 C51.19075055 79.54627123 51.19759237 83.08364757 51.203125 86.62109375 C51.20887916 89.08439637 51.21463686 91.54769898 51.22039795 94.01100159 C51.23089304 99.17148039 51.23674591 104.33194367 51.24023438 109.49243164 C51.24572515 116.10109265 51.26977217 122.70954827 51.29820633 129.3181448 C51.31683594 134.40453186 51.32203842 139.49086938 51.32357025 144.57728767 C51.32659503 147.01371449 51.33461761 149.45014047 51.34775543 151.88653374 C51.36482709 155.2948763 51.362933 158.70271591 51.35644531 162.11108398 C51.3656601 163.11442276 51.37487488 164.11776154 51.3843689 165.15150452 C51.32744381 174.70781613 47.88401817 181.51617965 42 189 C39.76297755 191.19210232 37.4759585 193.06875237 35 195 C34.34 194.67 33.68 194.34 33 194 C33.39832031 193.5153125 33.79664063 193.030625 34.20703125 192.53125 C34.73683594 191.8609375 35.26664063 191.190625 35.8125 190.5 C36.59560547 189.52546875 36.59560547 189.52546875 37.39453125 188.53125 C41.64770663 181.82551364 42.44307886 175.78995142 42.40405273 168.04248047 C42.41091599 167.07868973 42.41777924 166.11489899 42.42485046 165.12190247 C42.44306549 161.95351176 42.43928652 158.78561907 42.43359375 155.6171875 C42.43815987 153.39771363 42.44346672 151.17824118 42.44947815 148.95877075 C42.45840028 144.310346 42.45599837 139.66209311 42.44604492 135.01367188 C42.43458919 129.08943409 42.45471964 123.1657954 42.48396206 117.24163628 C42.50241553 112.65677181 42.50201288 108.07204825 42.49632454 103.48715591 C42.49617227 101.3049244 42.50213787 99.12268275 42.51461601 96.94048691 C42.57369136 84.91047445 42.25228574 74.38750273 38 63 C37.68876694 62.07178436 37.37753387 61.14356873 37.05686951 60.18722534 C34.69536317 53.23699497 30.53130503 47.70421266 26 42 C24.85724609 40.53046875 24.85724609 40.53046875 23.69140625 39.03125 C20.80826991 35.5964467 17.43279742 32.95392604 13.875 30.25 C13.25496094 29.76917969 12.63492188 29.28835937 11.99609375 28.79296875 C9.37986132 26.77312479 6.75085681 24.83390454 4 23 C4.85472385 18.10968128 7.73713408 15.60997932 11 12 C6.545 16.455 6.545 16.455 2 21 C-2.03308613 19.65563796 -5.43232764 18.38611623 -9.1875 16.5625 C-20.30103144 11.48245413 -32.02092124 9.85814093 -44 8 C-44 4.37 -44 0.74 -44 -3 C-50.6 -3 -57.2 -3 -64 -3 C-64 0.63 -64 4.26 -64 8 C-66.01287109 8.34611328 -66.01287109 8.34611328 -68.06640625 8.69921875 C-80.70170965 10.94279431 -93.29277956 13.23927295 -104.6875 19.4375 C-106.3271875 20.2109375 -106.3271875 20.2109375 -108 21 C-111.50400426 19.67506941 -114.13979182 17.38350682 -117 15 C-115.7315625 16.11375 -115.7315625 16.11375 -114.4375 17.25 C-112 20 -112 20 -112.0625 21.96484375 C-113.34637315 24.75191837 -114.98953507 25.66658809 -117.5625 27.3125 C-134.8689221 38.96483534 -144.60874861 54.60486536 -149.56825638 74.71323013 C-150.33999397 78.8008094 -150.29470516 82.87277248 -150.29052734 87.02099609 C-150.29724457 87.99121201 -150.30396179 88.96142792 -150.31088257 89.96104431 C-150.32978397 93.14856168 -150.33378261 96.33586767 -150.3359375 99.5234375 C-150.34237017 101.75249313 -150.34909888 103.98154792 -150.35610962 106.21060181 C-150.36806223 110.87577267 -150.37179244 115.5408696 -150.37060547 120.20605469 C-150.37040224 126.16652936 -150.39771831 132.12652749 -150.43214989 138.08688927 C-150.45444898 142.68873244 -150.4584421 147.2904614 -150.45738602 151.89235306 C-150.45973689 154.0890632 -150.46853128 156.28577674 -150.48405075 158.48243332 C-150.50377416 161.56202831 -150.49784775 164.64060136 -150.48583984 167.72021484 C-150.49707886 168.61611832 -150.50831787 169.51202179 -150.51989746 170.43507385 C-150.43156866 179.40606687 -147.27935684 186.83515858 -142 194 C-147.76951214 191.43577238 -151.44037414 187.83054785 -154.75 182.5 C-155.34296875 181.5615625 -155.9359375 180.623125 -156.546875 179.65625 C-158.63223683 175.84429827 -159.12438684 172.69966738 -159.14044189 168.38574219 C-159.14615204 167.46361435 -159.15186218 166.54148651 -159.15774536 165.59141541 C-159.15886322 164.58671707 -159.15998108 163.58201874 -159.16113281 162.546875 C-159.16609772 161.48292007 -159.17106262 160.41896515 -159.17617798 159.32276917 C-159.19079575 155.7985062 -159.19760264 152.27428832 -159.203125 148.75 C-159.2088788 146.29581705 -159.21463651 143.84163411 -159.22039795 141.38745117 C-159.23090825 136.23600048 -159.23675006 131.08456538 -159.24023438 125.93310547 C-159.24570504 119.35402461 -159.26970256 112.77515218 -159.29820633 106.19613647 C-159.31689891 101.12241021 -159.32204194 96.04873336 -159.32357025 90.97497559 C-159.3265847 88.55105455 -159.33457211 86.12713413 -159.34775543 83.70324707 C-159.36494666 80.29810114 -159.36290321 76.89345382 -159.35644531 73.48828125 C-159.3656601 72.49977676 -159.37487488 71.51127228 -159.3843689 70.49281311 C-159.32458916 60.35247224 -157.00955831 50.86491873 -152.3125 41.875 C-151.96219727 41.19469727 -151.61189453 40.51439453 -151.25097656 39.81347656 C-148.13736626 33.94584032 -144.51536046 28.8850851 -140 24 C-139.11570312 23.02417969 -138.23140625 22.04835937 -137.3203125 21.04296875 C-130.36092579 13.59588438 -122.85607172 8.00369275 -114 3 C-112.31583984 2.04287109 -112.31583984 2.04287109 -110.59765625 1.06640625 C-101.72052054 -3.661965 -92.70181081 -6.490911 -83 -9 C-81.65035156 -9.35384766 -81.65035156 -9.35384766 -80.2734375 -9.71484375 C-54.54680921 -15.94196049 -23.53272515 -12.11891277 0 0 Z " fill="#F9F9F9" transform="translate(214,56)"/>
<path d="M0 0 C1.32 0.33 2.64 0.66 4 1 C4 8.33333333 4 15.66666667 4 23 C4.35100458 25.4954983 4.62287217 26.65241221 6.49609375 28.37890625 C18.61424298 35.76683224 31.72885859 36.8630693 45.5 33.8125 C50.37782829 32.40172292 55.29162873 30.58645221 59 27 C59.89858341 24.49290265 60 22.69428377 60 20 C60.3062434 18.66018514 60.63451555 17.32488113 61 16 C60.01 15.505 60.01 15.505 59 15 C59.165 14.360625 59.33 13.72125 59.5 13.0625 C60.15932515 9.02413348 60.08003779 5.08192742 60 1 C61.32 0.67 62.64 0.34 64 0 C64 7.26 64 14.52 64 22 C67.09375 21.87625 67.09375 21.87625 70.25 21.75 C77.55542924 21.75736434 83.3124887 23.1578077 90 26 C90.886875 26.37382812 91.77375 26.74765625 92.6875 27.1328125 C98.51902156 29.8174459 103.67337456 33.20203827 108 38 C108 38.66 108 39.32 108 40 C105.9263441 41.06080085 103.84064914 42.09809524 101.75 43.125 C100.58984375 43.70507812 99.4296875 44.28515625 98.234375 44.8828125 C95 46 95 46 92.6796875 45.31640625 C91 44 91 44 89.375 41.8125 C83.61879915 34.99594637 75.50391339 30.51216524 67 28 C66.01 28 65.02 28 64 28 C64.75023437 28.32871094 65.50046875 28.65742188 66.2734375 28.99609375 C74.90756244 33.00867826 82.63366993 37.9505049 88 46 C88 46.99 88 47.98 88 49 C49.71116617 61.61327255 13.3621831 62.43033598 -25 49 C-21.77560438 39.69761863 -13.45211632 34.32946904 -5 30 C-3.34241129 29.31107192 -1.6779285 28.63779165 0 28 C-10.89441629 29.39008873 -20.99646901 35.54897827 -27.71484375 44.2109375 C-28.13894531 44.80132812 -28.56304687 45.39171875 -29 46 C-32.85025879 45.39644592 -35.86101159 44.23227397 -39.3125 42.4375 C-40.19550781 41.98246094 -41.07851562 41.52742188 -41.98828125 41.05859375 C-42.98408203 40.53458984 -42.98408203 40.53458984 -44 40 C-41.16236311 33.18967146 -33.65869289 28.82050541 -27.140625 25.84375 C-17.92925869 22.21299248 -9.89387676 21.70612247 0 22 C0 14.74 0 7.48 0 0 Z " fill="#F9F9F9" transform="translate(128,258)"/>
<path d="M0 0 C0 2.97 0 5.94 0 9 C-9.9 9.495 -9.9 9.495 -20 10 C-20 16.27 -20 22.54 -20 29 C-18.02 28.67 -16.04 28.34 -14 28 C-11.54245859 27.93421998 -9.08331222 27.91430838 -6.625 27.9375 C-3.345625 27.9684375 -3.345625 27.9684375 0 28 C0 34.6 0 41.2 0 48 C6.6 48 13.2 48 20 48 C20 41.4 20 34.8 20 28 C22.5575 27.979375 25.115 27.95875 27.75 27.9375 C28.54889648 27.928396 29.34779297 27.91929199 30.17089844 27.90991211 C33.70053223 27.89613142 36.55023818 28.13755954 40 29 C40 22.73 40 16.46 40 10 C33.4 9.67 26.8 9.34 20 9 C20 6.03 20 3.06 20 0 C35.67145613 1.64734532 48.90815316 6.06127597 63 13 C61.2859225 16.91423667 58.89963636 19.11976282 55.75390625 21.92578125 C47.57036394 31.60386803 50.49003359 43.74916025 50 56 C23.6 56 -2.8 56 -30 56 C-30.33 47.75 -30.66 39.5 -31 31 C-34.41152264 23.84753851 -34.41152264 23.84753851 -39.25 18.625 C-40.53197051 17.45064015 -41.7913634 16.24970677 -43 15 C-43 14.34 -43 13.68 -43 13 C-29.75373737 5.82185768 -15.28288848 0 0 0 Z " fill="#FBFBFB" transform="translate(150,65)"/>
<path d="M0 0 C6.6 0 13.2 0 20 0 C20 6.93 20 13.86 20 21 C21.815 20.979375 23.63 20.95875 25.5 20.9375 C30.53334966 20.88030284 34.89913203 21.3623915 40 22 C40 28.27 40 34.54 40 41 C33.4 40.67 26.8 40.34 20 40 C20 46.6 20 53.2 20 60 C13.4 60 6.8 60 0 60 C0 53.4 0 46.8 0 40 C-6.6 40.33 -13.2 40.66 -20 41 C-20 34.73 -20 28.46 -20 22 C-15.28212533 21.21368755 -11.34980236 20.89292639 -6.625 20.9375 C-3.345625 20.9684375 -3.345625 20.9684375 0 21 C0 14.07 0 7.14 0 0 Z " fill="#080808" transform="translate(150,53)"/>
<path d="M0 0 C1.1257695 -0.00983414 2.251539 -0.01966827 3.41142273 -0.02980042 C4.64218536 -0.02013245 5.872948 -0.01046448 7.14100647 -0.00050354 C9.09030312 -0.00860802 9.09030312 -0.00860802 11.07897949 -0.01687622 C14.64111804 -0.0308377 18.20277392 -0.01965606 21.76488566 -0.00316501 C25.49415001 0.01068913 29.22338644 0.00422489 32.95266724 0.0007019 C39.2163724 -0.00200028 45.47988596 0.01147478 51.74354553 0.03465271 C58.98155608 0.06125101 66.21924602 0.06301333 73.45728868 0.05126435 C80.42305022 0.04047761 87.38869597 0.04668138 94.35444832 0.06081963 C97.31726893 0.06657287 100.28000462 0.06650195 103.24282646 0.06175423 C107.38224047 0.05608726 111.52117747 0.07532083 115.66053772 0.09715271 C116.88927612 0.09265106 118.11801453 0.08814941 119.38398743 0.08351135 C121.07687141 0.0983683 121.07687141 0.0983683 122.80395508 0.11352539 C123.78231292 0.11595529 124.76067076 0.11838518 125.7686758 0.12088871 C130.1897247 0.74436946 133.62726438 3.09535947 136.46546936 6.50120544 C137.67457431 10.1285203 137.62880871 13.46484553 137.64247131 17.24217224 C137.64904251 18.02955276 137.65561371 18.81693329 137.66238403 19.62817383 C137.68210333 22.23559161 137.69377796 24.84295177 137.70375061 27.45042419 C137.70782614 28.34235788 137.71190166 29.23429157 137.71610069 30.15325356 C137.73695784 34.87625013 137.75125983 39.5992177 137.76063538 44.32225037 C137.77168553 49.19009844 137.80607027 54.05748761 137.84580708 58.92517376 C137.87201139 62.67681705 137.8803307 66.42835176 137.88391685 70.18007851 C137.88877472 71.97374882 137.90036582 73.76741454 137.91895485 75.5609951 C137.94342299 78.07878324 137.9423674 80.59539423 137.93544006 83.11326599 C137.95465515 84.21319382 137.95465515 84.21319382 137.97425842 85.33534241 C137.92025821 90.75278961 136.67806408 95.07864598 133.46546936 99.50120544 C128.14474286 103.76926999 121.35653787 102.92977472 114.85414124 102.90525818 C112.95070702 102.91555305 112.95070702 102.91555305 111.00881958 102.92605591 C107.53980068 102.94395401 104.07103518 102.94282556 100.60198402 102.93711352 C97.70185202 102.93401731 94.80176839 102.9401188 91.90164328 102.94615227 C85.05878243 102.96018438 78.21604647 102.95864673 71.3731842 102.94725037 C64.32142079 102.93576539 57.27003752 102.94985387 50.21832418 102.97664684 C44.15528742 102.99881801 38.09236986 103.0054382 32.02929544 102.99957043 C28.41181231 102.9962036 24.79457294 102.99859761 21.17712402 103.01582146 C17.14343757 103.03419032 13.11048916 103.02008915 9.07679749 103.00291443 C7.88284866 103.0125824 6.68889984 103.02225037 5.45877075 103.0322113 C-4.99142343 102.93894054 -4.99142343 102.93894054 -9.53453064 98.50120544 C-12.64780647 93.89843927 -12.96670792 89.68962126 -12.92271423 84.28025818 C-12.92797119 83.47786713 -12.93322815 82.67547607 -12.93864441 81.84877014 C-12.95179099 79.21057871 -12.9431263 76.57299619 -12.93296814 73.93479919 C-12.93499021 72.09447108 -12.93790277 70.25414374 -12.94166565 68.41381836 C-12.94608159 64.5630681 -12.93968073 60.71252704 -12.92564392 56.86180115 C-12.90854042 51.9298843 -12.91840519 46.99845685 -12.93636131 42.06655788 C-12.9472086 38.26869019 -12.94374867 34.4709383 -12.93597794 30.67306709 C-12.93397917 28.85461939 -12.93642384 27.03616111 -12.9434166 25.21772575 C-12.951048 22.675787 -12.9394041 20.13463819 -12.92271423 17.59275818 C-12.92878693 16.84404953 -12.93485962 16.09534088 -12.94111633 15.32394409 C-12.8714931 9.59096811 -11.36403475 6.69100483 -7.77258015 2.39226341 C-4.97789194 0.03086909 -3.6207079 0.00077482 0 0 Z M-7.53453064 7.50120544 C-9.0928706 10.61788536 -8.71736198 13.93665259 -8.74327087 17.35984802 C-8.75305466 18.17140854 -8.76283844 18.98296906 -8.7729187 19.81912231 C-8.80289223 22.51131035 -8.82426283 25.20344868 -8.84312439 27.89573669 C-8.84969622 28.81439703 -8.85626804 29.73305737 -8.86303902 30.67955589 C-8.89564042 35.54172094 -8.92008996 40.40386398 -8.93955994 45.26609802 C-8.95738111 49.29278888 -8.99221272 53.31878048 -9.042099 57.34519958 C-9.10223193 62.20403381 -9.13302604 67.06221907 -9.14273262 71.9214077 C-9.15129998 73.77342463 -9.17014966 75.62542363 -9.19947624 77.47722816 C-9.23833372 80.07038299 -9.23943385 82.66100311 -9.23155212 85.25437927 C-9.25155273 86.01872284 -9.27155334 86.78306641 -9.29216003 87.5705719 C-9.23916066 91.45687131 -8.63467021 93.36963697 -6.26869202 96.47817993 C-1.47912358 99.82221678 4.3054346 99.17959521 9.90907288 99.11643982 C11.16012817 99.12198883 12.41118347 99.12753784 13.70014954 99.133255 C17.12000263 99.14302388 20.53833697 99.13048288 23.95802808 99.10696983 C27.54179868 99.08681543 31.12553723 99.09274269 34.70935059 99.09507751 C40.72576674 99.095024 46.74186824 99.0752994 52.75819397 99.04319763 C59.70883209 99.00629032 66.65905847 98.99752492 73.6097818 99.00449514 C80.30432275 99.01080489 86.99872288 99.00003827 93.6932354 98.98052979 C96.53882292 98.97236613 99.38433836 98.96964431 102.2299366 98.97122192 C106.20386395 98.97226575 110.17741959 98.94806764 114.15126038 98.92112732 C115.330103 98.92405792 116.50894562 98.92698853 117.72351074 98.93000793 C118.80713898 98.91865814 119.89076721 98.90730835 121.00723267 98.89561462 C121.94612115 98.89188591 122.88500963 98.8881572 123.85234928 98.88431549 C127.02393301 98.41932898 128.8848766 97.38010205 131.46546936 95.50120544 C133.9401957 91.78911594 133.7680945 88.91871114 133.77186584 84.62083435 C133.78435112 83.41790489 133.78435112 83.41790489 133.79708862 82.19067383 C133.82120828 79.53632266 133.82996306 76.88221712 133.83656311 74.22776794 C133.84552792 72.38315252 133.85464974 70.53853785 133.86392212 68.69392395 C133.88041999 64.82530448 133.88811368 60.95677164 133.89100647 57.08811951 C133.89639125 52.13239618 133.93407155 47.1774876 133.97975063 42.2219944 C134.00950248 38.41126029 134.01672962 34.60072282 134.01773262 30.78988266 C134.02193863 28.96302432 134.03438822 27.1361656 134.05525017 25.30942154 C134.08212663 22.75246132 134.07735127 20.19739524 134.06483459 17.6403656 C134.07966888 16.88694382 134.09450317 16.13352203 134.10978699 15.35726929 C134.05422933 11.36889421 133.61431964 9.68298763 131.05300903 6.55500793 C127.48524621 3.72317496 125.83856425 3.37432563 121.36126709 3.35403442 C119.73984299 3.34330147 119.73984299 3.34330147 118.08566284 3.33235168 C116.2988636 3.32831833 116.2988636 3.32831833 114.47596741 3.32420349 C113.22549622 3.31763229 111.97502502 3.3110611 110.68666077 3.30429077 C107.25059023 3.28793435 103.81458132 3.2763282 100.37848639 3.26808524 C98.23196467 3.26293565 96.08544727 3.2568599 93.9389286 3.25057411 C87.22361598 3.23152105 80.50831436 3.21729025 73.7929799 3.20896214 C66.0400417 3.19918865 58.28738893 3.17286701 50.53455132 3.13246125 C44.54297253 3.10230582 38.55147559 3.08749383 32.55982238 3.08418113 C28.98084056 3.08182994 25.40216362 3.07286124 21.82326317 3.04771996 C17.82971084 3.02011927 13.83679652 3.02426853 9.84315491 3.03123474 C8.65802811 3.01842468 7.47290131 3.00561462 6.25186157 2.99241638 C-1.51949511 2.92632314 -1.51949511 2.92632314 -7.53453064 7.50120544 Z " fill="#EFEFEF" transform="translate(97.53453063964844,128.49879455566406)"/>
<path d="M0 0 C0 0.66 0 1.32 0 2 C0.99 1.67 1.98 1.34 3 1 C3.77466486 5.06699052 4.09404211 8.86214725 4 13 C4 13.66 4 14.32 4 15 C3.7215625 16.423125 3.7215625 16.423125 3.4375 17.875 C3.03565968 20.74528798 3.0702053 22.31392643 4 25 C-6.24810147 34.02808939 -16.78409562 35.5892982 -30.15625 35.25 C-39.23535999 34.65948878 -47.49018464 31.50981536 -54 25 C-53.68404492 23.32995171 -53.34820041 21.66362417 -53 20 C-53.33113717 18.33289561 -53.66482525 16.66629733 -54 15 C-54.11372701 12.93968967 -54.17468381 10.87590695 -54.1875 8.8125 C-54.20167969 7.76707031 -54.21585938 6.72164063 -54.23046875 5.64453125 C-54 3 -54 3 -52 1 C-51.34 1.33 -50.68 1.66 -50 2 C-50 1.34 -50 0.68 -50 0 C-39.44191344 3.07517084 -39.44191344 3.07517084 -35 5 C-35 5.33 -35 5.66 -35 6 C-37.64 6 -40.28 6 -43 6 C-36.8682606 7.78842399 -31.37111147 8.3079192 -25 8.25 C-24.14921875 8.25773437 -23.2984375 8.26546875 -22.421875 8.2734375 C-15.58352302 8.25246096 -9.03195116 7.51863818 -3 4 C-3.86625 4.33 -4.7325 4.66 -5.625 5 C-8.95718275 5.98731341 -11.55159538 6.16420974 -15 6 C-14.34 5.34 -13.68 4.68 -13 4 C-19.6 4 -26.2 4 -33 4 C-33 3.67 -33 3.34 -33 3 C-31.2984375 2.92652344 -31.2984375 2.92652344 -29.5625 2.8515625 C-28.04164602 2.7764586 -26.52081375 2.70091416 -25 2.625 C-24.25621094 2.5940625 -23.51242188 2.563125 -22.74609375 2.53125 C-14.85105717 2.11933505 -7.61168053 -1.48924184 0 0 Z " fill="#161616" transform="translate(185,259)"/>
<path d="M0 0 C7.95678382 1.21081493 13.77960476 6.66679803 18.4921875 13.0078125 C22.95685023 20.53582046 22.98944579 29.48948679 22 38 C20.86745987 41.78326983 19.25767514 44.7747498 17 48 C16.55398438 48.65484375 16.10796875 49.3096875 15.6484375 49.984375 C12.01524438 54.73391238 7.45929081 57.63066779 2 60 C1.34 60 0.68 60 0 60 C0.125 57.75 0.125 57.75 1 55 C1.9075 54.401875 2.815 53.80375 3.75 53.1875 C7.8460225 50.43056178 9.66275485 47.2608186 12 43 C10.9171875 44.11375 10.9171875 44.11375 9.8125 45.25 C2.90909091 52 2.90909091 52 0 52 C0 38.14 0 24.28 0 10 C7 14 7 14 10 16 C6.23412262 11.26863279 6.23412262 11.26863279 1.625 7.4375 C0 6 0 6 -0.25 2.8125 C-0.1675 1.884375 -0.085 0.95625 0 0 Z " fill="#F7F7F7" transform="translate(269,144)"/>
<path d="M0 0 C0.265625 2.7578125 0.265625 2.7578125 0 6 C-1.828125 8.0546875 -1.828125 8.0546875 -4.25 9.875 C-8.75498219 13.54993035 -10.80352117 16.65205155 -13 22 C-12.64808594 21.46890625 -12.29617187 20.9378125 -11.93359375 20.390625 C-11.43988281 19.68421875 -10.94617187 18.9778125 -10.4375 18.25 C-9.96183594 17.55390625 -9.48617187 16.8578125 -8.99609375 16.140625 C-7 14 -7 14 0 10 C0 23.86 0 37.72 0 52 C-4.67417347 50.13033061 -5.83490662 49.4948194 -8.8125 45.875 C-9.41707031 45.15054688 -10.02164063 44.42609375 -10.64453125 43.6796875 C-11.09183594 43.12539062 -11.53914063 42.57109375 -12 42 C-9.58673427 47.46160138 -6.65667704 51.20494795 -1.6875 54.5625 C-1.130625 55.036875 -0.57375 55.51125 0 56 C0 57.32 0 58.64 0 60 C-8.04226548 58.71323752 -13.41370528 53.30047913 -18 47 C-23.41150178 39.31248423 -23.3894221 29.02377362 -22 20 C-19.2198629 12.10165996 -13.00988624 5.89084822 -6.3125 1.0625 C-4 0 -4 0 0 0 Z " fill="#F8F8F8" transform="translate(51,144)"/>
<path d="M0 0 C4.97309629 2.93738024 8.73059053 6.46911533 10.58984375 12.046875 C10.70813812 13.8983195 10.76499236 15.75419638 10.77734375 17.609375 C10.79152344 18.58003906 10.80570313 19.55070312 10.8203125 20.55078125 C10.58984375 23.046875 10.58984375 23.046875 8.58984375 25.046875 C6.03233922 25.2464447 3.58546234 25.32674326 1.02734375 25.3125 C-0.09329468 25.31537018 -0.09329468 25.31537018 -1.23657227 25.31829834 C-2.81689796 25.31965998 -4.39723483 25.315965 -5.97753906 25.30761719 C-8.40064547 25.296917 -10.82301048 25.30751279 -13.24609375 25.3203125 C-14.77994956 25.3189909 -16.3138049 25.3164285 -17.84765625 25.3125 C-18.57476807 25.31654846 -19.30187988 25.32059692 -20.05102539 25.32476807 C-25.18023264 25.27679861 -25.18023264 25.27679861 -27.41015625 23.046875 C-28.44970984 17.19938606 -28.00848507 12.18355887 -24.84765625 7.109375 C-18.65461964 -0.9085239 -9.86235991 -3.90018771 0 0 Z " fill="#F7F7F7" transform="translate(128.41015625,167.953125)"/>
<path d="M0 0 C4.5097625 3.11388363 8.51176326 6.69624263 10.625 11.8125 C10.96796535 15.50473632 11.08180858 19.12836845 10.625 22.8125 C8.13649326 25.30100674 6.6628994 25.0586233 3.26586914 25.09039307 C2.17520142 25.08432037 2.17520142 25.08432037 1.0625 25.078125 C-0.05813843 25.08099518 -0.05813843 25.08099518 -1.20141602 25.08392334 C-2.78174171 25.08528498 -4.36207858 25.08159 -5.94238281 25.07324219 C-8.36548922 25.062542 -10.78785423 25.07313779 -13.2109375 25.0859375 C-14.74479331 25.0846159 -16.27864865 25.0820535 -17.8125 25.078125 C-18.53961182 25.08217346 -19.26672363 25.08622192 -20.01586914 25.09039307 C-25.14507639 25.04242361 -25.14507639 25.04242361 -27.375 22.8125 C-28.09622864 17.75551316 -28.18336892 12.53048384 -25.75 7.9375 C-19.13371352 -0.76814011 -10.57025343 -3.71916324 0 0 Z " fill="#F7F7F7" transform="translate(208.375,168.1875)"/>
<path d="M0 0 C0.99 0.495 0.99 0.495 2 1 C5.14320639 2.04773546 7.75156696 2.0955037 11.04296875 2.00390625 C13 2 13 2 15.75 2.5 C26.01263954 4.07886762 36.17708272 2.58881969 46.26953125 0.5390625 C48.96422058 0.02848978 50.53020192 -0.24958023 53 1.0625 C54.46556324 3.90202877 53.62627108 5.93127172 53 9 C53.3577614 11.27650745 53.3577614 11.27650745 54 13 C50.23684725 16.31515837 46.80264201 19.33377726 42 21 C38.375 20.25 38.375 20.25 35 19 C30.922734 17.81476002 26.9640678 17.88910523 22.75 17.9375 C22.00492188 17.94201172 21.25984375 17.94652344 20.4921875 17.95117188 C18.6614236 17.96290754 16.83070127 17.9808415 15 18 C15 18.33 15 18.66 15 19 C8.7950962 18.7242265 4.89839001 17.89359206 0 14 C3 12 3 12 7 12 C3.535 10.02 3.535 10.02 0 8 C0.33 7.01 0.66 6.02 1 5 C4.40098648 5.62331247 7.58792123 6.5026475 10.875 7.5625 C19.21689362 9.88598939 28.56328265 9.98888394 37 8 C36.34 7.67 35.68 7.34 35 7 C35 6.34 35 5.68 35 5 C34.34 5 33.68 5 33 5 C27 5 21 5 15 5 C15 5.66 15 6.32 15 7 C9.55432314 5.97137215 4.88182883 4.75385216 0 2 C0 1.34 0 0.68 0 0 Z " fill="#2C2C2C" transform="translate(135,271)"/>
<path d="M0 0 C0 0.66 0 1.32 0 2 C0.99 1.67 1.98 1.34 3 1 C3 1.66 3 2.32 3 3 C2 4 1 5 0 6 C0 6.66 0 7.32 0 8 C-1.55780332 8.67756882 -3.12150096 9.34159457 -4.6875 10 C-5.99267578 10.556875 -5.99267578 10.556875 -7.32421875 11.125 C-10.0572002 12.01870488 -12.14700934 12.16449676 -15 12 C-14.01 11.34 -13.02 10.68 -12 10 C-12.84175781 10.16371094 -13.68351562 10.32742188 -14.55078125 10.49609375 C-18.15350144 11.02242546 -21.54879857 11.09760001 -25.1875 11.0625 C-26.39792969 11.05347656 -27.60835937 11.04445313 -28.85546875 11.03515625 C-29.89316406 11.02355469 -30.93085938 11.01195312 -32 11 C-32.99 11 -33.98 11 -35 11 C-35 11.33 -35 11.66 -35 12 C-40.54590313 11.64259735 -45.26783315 11.19421263 -50 8 C-50.75 5.875 -50.75 5.875 -51 4 C-51.66 3.67 -52.32 3.34 -53 3 C-52.67 2.34 -52.34 1.68 -52 1 C-51.34 1.33 -50.68 1.66 -50 2 C-50 1.34 -50 0.68 -50 0 C-39.44191344 3.07517084 -39.44191344 3.07517084 -35 5 C-35 5.33 -35 5.66 -35 6 C-37.64 6 -40.28 6 -43 6 C-36.8682606 7.78842399 -31.37111147 8.3079192 -25 8.25 C-24.14921875 8.25773437 -23.2984375 8.26546875 -22.421875 8.2734375 C-15.58352302 8.25246096 -9.03195116 7.51863818 -3 4 C-3.86625 4.33 -4.7325 4.66 -5.625 5 C-8.95718275 5.98731341 -11.55159538 6.16420974 -15 6 C-14.34 5.34 -13.68 4.68 -13 4 C-19.6 4 -26.2 4 -33 4 C-33 3.67 -33 3.34 -33 3 C-31.2984375 2.92652344 -31.2984375 2.92652344 -29.5625 2.8515625 C-28.04164602 2.7764586 -26.52081375 2.70091416 -25 2.625 C-24.25621094 2.5940625 -23.51242188 2.563125 -22.74609375 2.53125 C-14.85105717 2.11933505 -7.61168053 -1.48924184 0 0 Z " fill="#8F8F8F" transform="translate(185,259)"/>
<path d="M0 0 C3.40098648 0.62331247 6.58792123 1.5026475 9.875 2.5625 C20.79563749 5.53819048 31.31413779 4.3650424 42.07421875 1.4609375 C45.25171078 0.96034463 46.38097664 1.22849515 49 3 C43.81917949 6.34594658 40.15222436 7.56826496 34 8 C34 7.34 34 6.68 34 6 C27.07 6 20.14 6 13 6 C13.33 6.66 13.66 7.32 14 8 C13.01 8.33 12.02 8.66 11 9 C14.13850064 9.92553743 16.93680778 10.11664647 20.203125 10.09765625 C21.1828125 10.09443359 22.1625 10.09121094 23.171875 10.08789062 C24.18765625 10.07951172 25.2034375 10.07113281 26.25 10.0625 C27.28125 10.05798828 28.3125 10.05347656 29.375 10.04882812 C31.91672573 10.03706088 34.45833319 10.02062011 37 10 C33.74265359 13.25734641 30.52089459 12.98724548 26.01171875 13.09765625 C24.57027989 13.09107434 23.12885662 13.07924498 21.6875 13.0625 C20.94693359 13.05798828 20.20636719 13.05347656 19.44335938 13.04882812 C17.62887101 13.03712175 15.81442466 13.01918898 14 13 C14 13.33 14 13.66 14 14 C7.7950962 13.7242265 3.89839001 12.89359206 -1 9 C2 7 2 7 6 7 C2.535 5.02 2.535 5.02 -1 3 C-0.67 2.01 -0.34 1.02 0 0 Z " fill="#5A5A5A" transform="translate(136,276)"/>
<path d="M0 0 C1.39698636 0.28609307 2.7925433 0.57916905 4.1875 0.875 C5.35345703 1.11863281 5.35345703 1.11863281 6.54296875 1.3671875 C9 2 9 2 11.32226562 3.02734375 C14.1866456 4.06779687 16.26698681 4.23079548 19.30078125 4.1953125 C20.27724609 4.18886719 21.25371094 4.18242187 22.25976562 4.17578125 C23.77086914 4.15064453 23.77086914 4.15064453 25.3125 4.125 C26.85260742 4.11146484 26.85260742 4.11146484 28.42382812 4.09765625 C30.94945899 4.07416201 33.4746081 4.04131131 36 4 C35.34 4.66 34.68 5.32 34 6 C36 5.66666667 38 5.33333333 40 5 C42 4.66666667 44 4.33333333 46 4 C38.49409917 9.89749351 31.40448051 10.18060588 22.125 10.1875 C20.83529297 10.20586914 20.83529297 10.20586914 19.51953125 10.22460938 C14.00490164 10.23716164 9.26689652 9.67904419 4 8 C3.34 7.34 2.68 6.68 2 6 C4.64 6 7.28 6 10 6 C6.37 4.68 2.74 3.36 -1 2 C-0.67 1.34 -0.34 0.68 0 0 Z " fill="#0B0B0B" transform="translate(138,258)"/>
<path d="M0 0 C14.41633967 -0.38467997 28.4643874 4.44846048 41.1171875 10.98828125 C43.8609233 12.26131495 43.8609233 12.26131495 46.1484375 11.39453125 C48.19778874 9.85103253 49.97003159 8.22342873 51.75 6.375 C52.36359375 5.74335937 52.9771875 5.11171875 53.609375 4.4609375 C54.06828125 3.97882813 54.5271875 3.49671875 55 3 C55 6 55 6 53.6875 7.5 C52.5625 8.5 51.4375 9.5 50.3125 10.5 C48.6707477 12.04409629 48.6707477 12.04409629 49 15 C50.99526172 16.69547681 50.99526172 16.69547681 53.5 18.1875 C54.75296875 18.98220703 54.75296875 18.98220703 56.03125 19.79296875 C56.6809375 20.19128906 57.330625 20.58960937 58 21 C57.34 21.99 56.68 22.98 56 24 C52.7 21.69 49.4 19.38 46 17 C41.25892502 20.25102284 38.79129597 24.10632366 36 29 C35.01 28.67 34.02 28.34 33 28 C33.55171366 24.1552454 35.21462331 22.49126453 38 19.875 C40.89285588 17.22939276 40.89285588 17.22939276 43 14 C42.13246094 13.72800781 41.26492187 13.45601562 40.37109375 13.17578125 C37.12629659 12.04405014 34.16054414 10.66815413 31.0625 9.1875 C21.15477764 4.84687244 10.57660472 3.03659098 0 1 C0 0.67 0 0.34 0 0 Z " fill="#383838" transform="translate(170,64)"/>
<path d="M0 0 C-3.50768209 2.05051067 -6.89333803 2.62644196 -10.875 3.3125 C-21.5562926 5.29663698 -31.37232508 9.00101494 -41 14 C-41.66 14 -42.32 14 -43 14 C-41.89718873 15.27200971 -40.79269231 16.54255853 -39.6875 17.8125 C-38.76517578 18.87404297 -38.76517578 18.87404297 -37.82421875 19.95703125 C-36.26665665 21.70136739 -34.67341125 23.36778041 -33 25 C-33.33 25.66 -33.66 26.32 -34 27 C-34.99 27 -35.98 27 -37 27 C-38.5 25.3203125 -38.5 25.3203125 -40 23.125 C-41.94357251 20.3007462 -43.07797699 18.94801534 -46 17 C-50.455 19.97 -50.455 19.97 -55 23 C-55.99 22.34 -56.98 21.68 -58 21 C-55.03 19.02 -52.06 17.04 -49 15 C-50.04793663 10.80825346 -50.91763635 9.78407039 -54 7 C-53.67 6.34 -53.34 5.68 -53 5 C-50.69 7.31 -48.38 9.62 -46 12 C-42.08574978 10.74881738 -38.37036224 9.30987642 -34.625 7.625 C-23.95617483 3.11742137 -11.61722597 -0.27660062 0 0 Z " fill="#3B3B3B" transform="translate(150,64)"/>
<path d="M0 0 C8.58 0 17.16 0 26 0 C25.34 0.66 24.68 1.32 24 2 C27.3 1.67 30.6 1.34 34 1 C31.79705342 4.30441987 30.71450698 5.80386083 26.8125 6.875 C25.884375 6.91625 24.95625 6.9575 24 7 C23.67 6.67 23.34 6.34 23 6 C21.66549373 5.93750914 20.32776903 5.94049962 18.9921875 5.97265625 C17.75855469 5.99102539 17.75855469 5.99102539 16.5 6.00976562 C14.77334406 6.04445291 13.04676745 6.08339578 11.3203125 6.12695312 C6.11908208 6.19560291 1.92392564 5.70135642 -3 4 C-3 3.67 -3 3.34 -3 3 C-1.35 2.67 0.3 2.34 2 2 C1.34 1.34 0.68 0.68 0 0 Z " fill="#080808" transform="translate(147,281)"/>
<path d="M0 0 C7.26 0 14.52 0 22 0 C22 0.33 22 0.66 22 1 C24.475 1.495 24.475 1.495 27 2 C26 4 26 4 22.9375 5.125 C18.56961519 6.13542144 14.21237787 6.18246175 9.75 6.1875 C9.05253662 6.18830566 8.35507324 6.18911133 7.63647461 6.18994141 C4.29040633 6.15367185 1.19923237 6.03068053 -2 5 C-2 4.34 -2 3.68 -2 3 C-2.99 2.67 -3.98 2.34 -5 2 C-3.35 1.67 -1.7 1.34 0 1 C0 0.67 0 0.34 0 0 Z " fill="#0F0F0F" transform="translate(149,288)"/>
<path d="M0 0 C-1.65 0.33 -3.3 0.66 -5 1 C-5 1.66 -5 2.32 -5 3 C-3.35 3 -1.7 3 0 3 C-4.92702609 6.28468406 -9.54310548 6.1579265 -15.375 6.1875 C-16.64085937 6.20167969 -17.90671875 6.21585937 -19.2109375 6.23046875 C-23.18323775 5.98885461 -26.24034042 5.22893265 -30 4 C-30 3.67 -30 3.34 -30 3 C-28.35 3 -26.7 3 -25 3 C-25 2.34 -25 1.68 -25 1 C-25.66 0.67 -26.32 0.34 -27 0 C-26.41508789 0.00523682 -25.83017578 0.01047363 -25.22753906 0.01586914 C-22.56837037 0.03670158 -19.90921889 0.04968007 -17.25 0.0625 C-16.32960937 0.07087891 -15.40921875 0.07925781 -14.4609375 0.08789062 C-13.57148438 0.09111328 -12.68203125 0.09433594 -11.765625 0.09765625 C-10.54020996 0.10551147 -10.54020996 0.10551147 -9.29003906 0.11352539 C-7.0051616 0.08138123 -7.0051616 0.08138123 -4.88964844 -0.56860352 C-3 -1 -3 -1 0 0 Z " fill="#040404" transform="translate(175,275)"/>
<path d="M0 0 C-1.46669041 3.4583016 -3.37521139 5.47057772 -6.125 8 C-10.683362 12.40421449 -13.91489419 17.17944695 -17.17578125 22.59375 C-19 25 -19 25 -21.23046875 25.84375 C-22.10638672 25.92109375 -22.10638672 25.92109375 -23 26 C-21.33462342 16.69097193 -12.04251623 7.67501476 -5.25 1.5 C-3 0 -3 0 0 0 Z " fill="#1F1F1F" transform="translate(94,86)"/>
<path d="M0 0 C0.99 0.495 0.99 0.495 2 1 C5.14320639 2.04773546 7.75156696 2.0955037 11.04296875 2.00390625 C13 2 13 2 15.75 2.5 C25.29714798 3.968792 34.57023986 2.67776252 44 1 C45.9997498 0.66516891 47.99967817 0.3313966 50 0 C50 0.66 50 1.32 50 2 C45.03715966 4.37113483 40.54050113 6.43174347 35 7 C35 6.34 35 5.68 35 5 C34.34 5 33.68 5 33 5 C27 5 21 5 15 5 C15 5.66 15 6.32 15 7 C9.55432314 5.97137215 4.88182883 4.75385216 0 2 C0 1.34 0 0.68 0 0 Z " fill="#A1A1A1" transform="translate(135,271)"/>
<path d="M0 0 C0.66 0 1.32 0 2 0 C2 18 2 36 2 54 C1.34 53.67 0.68 53.34 0 53 C0 39.47 0 25.94 0 12 C-6.85096787 16.50331256 -6.85096787 16.50331256 -10.5 22.375 C-11.2425 24.169375 -11.2425 24.169375 -12 26 C-13.12864861 22.61405417 -13.00116807 22.27654852 -11.5 19.25 C-8.9004002 14.3325752 -5.05056708 9.52528354 0 7 C0 4.69 0 2.38 0 0 Z " fill="#565656" transform="translate(50,143)"/>
<path d="M0 0 C3.26954202 0.56371414 4.82575883 1.49962266 7 4 C6.01 4.495 6.01 4.495 5 5 C8.465 6.98 8.465 6.98 12 9 C9.66682784 9.77772405 7.38564077 10.42415568 5 11 C7.36313608 12.44413871 9.69514387 13.85192702 12.1875 15.0625 C14 16 14 16 16 18 C9.60664663 17.5204985 4.48051374 14.48051374 0 10 C0.31595508 8.32995171 0.65179959 6.66362417 1 5 C0.62277985 2.27497035 0.62277985 2.27497035 0 0 Z " fill="#1C1C1C" transform="translate(131,274)"/>
<path d="M0 0 C0.99 0 1.98 0 3 0 C3 7.26 3 14.52 3 22 C2.34 21.67 1.68 21.34 1 21 C0.34 21.66 -0.32 22.32 -1 23 C-1 20.37886292 -0.68707555 18.49064888 0 16 C-0.66 15.67 -1.32 15.34 -2 15 C-1.7525 14.0409375 -1.7525 14.0409375 -1.5 13.0625 C-0.93710499 9.61476806 -0.97022524 6.37399707 -1.0625 2.890625 C-1 1 -1 1 0 0 Z " fill="#E9E9E9" transform="translate(189,258)"/>
<path d="M0 0 C14.64213888 -0.3907051 28.96696619 4.7312594 42 11 C41.01 11.66 40.02 12.32 39 13 C36.63804346 12.08180485 34.49804272 11.08528798 32.25 9.9375 C22.00092064 5.03074109 11.10364058 3.07974341 0 1 C0 0.67 0 0.34 0 0 Z " fill="#575757" transform="translate(170,64)"/>
<path d="M0 0 C0 3.3 0 6.6 0 10 C-0.99 10.33 -1.98 10.66 -3 11 C-3 10.34 -3 9.68 -3 9 C-3.5775 9.350625 -4.155 9.70125 -4.75 10.0625 C-7.41768223 11.17403426 -8.34662399 11.0271133 -11 10 C-11.99 9.34 -12.98 8.68 -14 8 C-9.05 6.515 -9.05 6.515 -4 5 C-4 4.34 -4 3.68 -4 3 C-4.66 2.67 -5.32 2.34 -6 2 C-3 0 -3 0 0 0 Z " fill="#262626" transform="translate(189,262)"/>
<path d="M0 0 C-2.13300328 2.36557373 -3.95949399 3.62967528 -6.9375 4.75 C-7.60652344 5.01296875 -8.27554688 5.2759375 -8.96484375 5.546875 C-11.31647491 6.07046274 -12.73617523 5.74954377 -15 5 C-15 4.67 -15 4.34 -15 4 C-20.94 4 -26.88 4 -33 4 C-33 3.67 -33 3.34 -33 3 C-32.05640625 2.96261719 -31.1128125 2.92523438 -30.140625 2.88671875 C-22.64358022 2.50283393 -15.90715787 1.75710697 -8.68359375 -0.4765625 C-5.52585292 -1.09248284 -3.12107494 -0.68746144 0 0 Z " fill="#757575" transform="translate(185,278)"/>
<path d="M0 0 C-2.56541703 2.99298654 -5.3726848 4.50639962 -9 6 C-12.375 6.1875 -12.375 6.1875 -15 6 C-14.34 5.34 -13.68 4.68 -13 4 C-19.6 4 -26.2 4 -33 4 C-33 3.67 -33 3.34 -33 3 C-31.2984375 2.92652344 -31.2984375 2.92652344 -29.5625 2.8515625 C-28.04164602 2.7764586 -26.52081375 2.70091416 -25 2.625 C-24.25621094 2.5940625 -23.51242188 2.563125 -22.74609375 2.53125 C-14.85105717 2.11933505 -7.61168053 -1.48924184 0 0 Z " fill="#6F6F6F" transform="translate(185,259)"/>
<path d="M0 0 C1.32 0 2.64 0 4 0 C4 0.66 4 1.32 4 2 C3 3 2 4 1 5 C1 5.66 1 6.32 1 7 C-0.55780332 7.67756882 -2.12150096 8.34159457 -3.6875 9 C-4.99267578 9.556875 -4.99267578 9.556875 -6.32421875 10.125 C-9.0572002 11.01870488 -11.14700934 11.16449676 -14 11 C-13.01 10.34 -12.02 9.68 -11 9 C-11.99 9 -12.98 9 -14 9 C-14 8.34 -14 7.68 -14 7 C-12.7625 6.731875 -11.525 6.46375 -10.25 6.1875 C-5.7658382 5.07042082 -3.24788131 3.24788131 0 0 Z " fill="#454545" transform="translate(184,260)"/>
<path d="M0 0 C10.55808656 3.07517084 10.55808656 3.07517084 15 5 C15 5.33 15 5.66 15 6 C12.36 6 9.72 6 7 6 C7 6.66 7 7.32 7 8 C5.35 7.67 3.7 7.34 2 7 C2 6.34 2 5.68 2 5 C-0.475 4.01 -0.475 4.01 -3 3 C-2.67 2.34 -2.34 1.68 -2 1 C-1.34 1.33 -0.68 1.66 0 2 C0 1.34 0 0.68 0 0 Z " fill="#2F2F2F" transform="translate(135,259)"/>
<path d="M0 0 C3.65943647 0.68907122 7.22441959 1.56821266 10.8125 2.5625 C12.27623047 2.96662109 12.27623047 2.96662109 13.76953125 3.37890625 C14.87361328 3.68634766 14.87361328 3.68634766 16 4 C16 4.66 16 5.32 16 6 C15.01 6 14.02 6 13 6 C13.33 6.66 13.66 7.32 14 8 C8.94744036 7.36843005 4.70406799 5.86540627 0 4 C0 2.66666667 0 1.33333333 0 0 Z " fill="#858585" transform="translate(136,276)"/>
<path d="M0 0 C-0.36958419 2.50261292 -0.6248413 3.68706274 -2.6015625 5.3359375 C-6.3476386 7.2595982 -8.82704226 8.45930612 -13 7.25 C-13.99 6.8375 -14.98 6.425 -16 6 C-15 4 -15 4 -12.3828125 2.9296875 C-11.30773437 2.58164062 -10.23265625 2.23359375 -9.125 1.875 C-8.05507812 1.52179688 -6.98515625 1.16859375 -5.8828125 0.8046875 C-3 0 -3 0 0 0 Z " fill="#2D2D2D" transform="translate(186,284)"/>
<path d="M0 0 C1.32 0.33 2.64 0.66 4 1 C4.02712066 2.43739513 4.04645067 3.87493863 4.0625 5.3125 C4.07410156 6.11300781 4.08570313 6.91351563 4.09765625 7.73828125 C4 10 4 10 3 13 C2.34 13 1.68 13 1 13 C0.67 13.99 0.34 14.98 0 16 C0 10.72 0 5.44 0 0 Z " fill="#EBEBEB" transform="translate(128,258)"/>
<path d="M0 0 C0.33 0.99 0.66 1.98 1 3 C-0.29296875 5.4453125 -0.29296875 5.4453125 -2.1875 8.125 C-3.10595703 9.45917969 -3.10595703 9.45917969 -4.04296875 10.8203125 C-6.0860134 13.09579935 -7.01785896 13.66938569 -10 14 C-8.92631575 8.63157875 -5.84365194 4.54468135 -1.6875 1.0625 C-1.130625 0.711875 -0.57375 0.36125 0 0 Z " fill="#151515" transform="translate(81,98)"/>
<path d="M0 0 C-1.50675727 3.01351454 -3.88652434 3.60409521 -6.875 5.0625 C-8.47988281 5.85333984 -8.47988281 5.85333984 -10.1171875 6.66015625 C-13 8 -13 8 -16 9 C-16 7.68 -16 6.36 -16 5 C-14.27656245 4.15488176 -12.54595947 3.32436646 -10.8125 2.5 C-9.36810547 1.80390625 -9.36810547 1.80390625 -7.89453125 1.09375 C-5.01077307 0.00407079 -3.04645139 -0.22277524 0 0 Z " fill="#212121" transform="translate(129,285)"/>
<path d="M0 0 C2 2 2 2 3.1875 4.75 C5.45792914 8.82111432 8.35253452 11.18195818 12 14 C11.01 15.485 11.01 15.485 10 17 C4.62539534 11.92398449 0.71968423 7.55668441 0 0 Z " fill="#272727" transform="translate(37,181)"/>
<path d="M0 0 C-1.38264837 2.86867231 -2.92148553 5.56024032 -4.625 8.25 C-5.07101563 8.95640625 -5.51703125 9.6628125 -5.9765625 10.390625 C-6.48316406 11.18726562 -6.48316406 11.18726562 -7 12 C-7.99 11.67 -8.98 11.34 -10 11 C-9.42380903 7.43235179 -8.13030516 5.74840503 -5.5625 3.25 C-4.94503906 2.63640625 -4.32757813 2.0228125 -3.69140625 1.390625 C-2 0 -2 0 0 0 Z " fill="#1A1A1A" transform="translate(213,81)"/>
<path d="M0 0 C5.27749285 0.53851968 9.25645564 1.77343836 14 4 C13.67 4.99 13.34 5.98 13 7 C8.50202887 5.31326082 4.27113698 3.18326108 0 1 C0 0.67 0 0.34 0 0 Z " fill="#2C2C2C" transform="translate(191,285)"/>
<path d="M0 0 C0 1.32 0 2.64 0 4 C-1.75 5.484375 -1.75 5.484375 -4 6.75 C-5.11375 7.39195312 -5.11375 7.39195312 -6.25 8.046875 C-7.11625 8.51867187 -7.11625 8.51867187 -8 9 C-8.66 8.34 -9.32 7.68 -10 7 C-8.02 6.34 -6.04 5.68 -4 5 C-4 4.34 -4 3.68 -4 3 C-4.66 2.67 -5.32 2.34 -6 2 C-3 0 -3 0 0 0 Z " fill="#171717" transform="translate(189,262)"/>
<path d="M0 0 C3.84814487 -0.58305225 5.76308635 0.2997117 8.8125 2.5 C9.88364055 3.32219744 10.9491359 4.15204049 12 5 C11.01 6.485 11.01 6.485 10 8 C8.33055479 6.85821872 6.6645052 5.71147095 5 4.5625 C4.071875 3.92441406 3.14375 3.28632812 2.1875 2.62890625 C1.465625 2.09136719 0.74375 1.55382812 0 1 C0 0.67 0 0.34 0 0 Z " fill="#202020" transform="translate(216,80)"/>
<path d="M0 0 C10.55808656 3.07517084 10.55808656 3.07517084 15 5 C15 5.33 15 5.66 15 6 C8.82804592 5.72569093 4.82851645 4.96185965 0 1 C0 0.67 0 0.34 0 0 Z " fill="#C4C4C4" transform="translate(135,284)"/>
<path d="M0 0 C10.55808656 3.07517084 10.55808656 3.07517084 15 5 C15 5.33 15 5.66 15 6 C9.50420782 6.54957922 5.53539004 4.96586366 1 2 C0.67 1.34 0.34 0.68 0 0 Z " fill="#C4C4C4" transform="translate(135,259)"/>
<path d="M0 0 C4.83628305 0.99043705 9.47618873 1.95698846 14 4 C10.08082574 5.95958713 5.56286639 4.17397688 1.5625 2.9375 C0.2940625 2.4734375 0.2940625 2.4734375 -1 2 C-0.67 1.34 -0.34 0.68 0 0 Z " fill="#474747" transform="translate(138,258)"/>
<path d="M0 0 C0.33 0.99 0.66 1.98 1 3 C-0.14453125 5.2265625 -0.14453125 5.2265625 -1.8125 7.625 C-2.35519531 8.42164063 -2.89789063 9.21828125 -3.45703125 10.0390625 C-5 12 -5 12 -7 13 C-7.33 12.01 -7.66 11.02 -8 10 C-6.6015625 8.02734375 -6.6015625 8.02734375 -4.625 5.9375 C-1.99549245 3.18958113 -1.99549245 3.18958113 0 0 Z " fill="#3F3F3F" transform="translate(281,184)"/>
<path d="M0 0 C-5.18082051 3.34594658 -8.84777564 4.56826496 -15 5 C-14 3 -14 3 -11.34765625 1.89453125 C-9.72150391 1.35892578 -9.72150391 1.35892578 -8.0625 0.8125 C-6.44021484 0.26529297 -6.44021484 0.26529297 -4.78515625 -0.29296875 C-2 -1 -2 -1 0 0 Z " fill="#C5C5C5" transform="translate(185,279)"/>
<path d="M0 0 C0 0.66 0 1.32 0 2 C-1.55780332 2.67756882 -3.12150096 3.34159457 -4.6875 4 C-5.99267578 4.556875 -5.99267578 4.556875 -7.32421875 5.125 C-10.0572002 6.01870488 -12.14700934 6.16449676 -15 6 C-12.29954818 4.19969878 -9.93322119 3.06622934 -6.9375 1.875 C-6.05964844 1.52179688 -5.18179688 1.16859375 -4.27734375 0.8046875 C-2 0 -2 0 0 0 Z " fill="#C7C7C7" transform="translate(185,265)"/>
<path d="M0 0 C0.66 0.33 1.32 0.66 2 1 C-1.3730619 3.96829447 -4.62968884 5.06350475 -9 6 C-11.21875 5.546875 -11.21875 5.546875 -13 5 C-11.3962669 4.35309078 -9.79199694 3.70751236 -8.1875 3.0625 C-6.84751953 2.52302734 -6.84751953 2.52302734 -5.48046875 1.97265625 C-3.6729091 1.26386514 -1.84192591 0.6139753 0 0 Z " fill="#CBCBCB" transform="translate(183,284)"/>
<path d="M0 0 C4.95 1.65 9.9 3.3 15 5 C15 5.66 15 6.32 15 7 C9.55432314 5.97137215 4.88182883 4.75385216 0 2 C0 1.34 0 0.68 0 0 Z " fill="#C5C5C5" transform="translate(135,271)"/>
<path d="M0 0 C-9.22551253 5.74031891 -9.22551253 5.74031891 -15 5 C-12.62383533 2.62383533 -10.64650479 1.95931819 -7.5 0.8125 C-6.5203125 0.44769531 -5.540625 0.08289063 -4.53125 -0.29296875 C-2 -1 -2 -1 0 0 Z " fill="#CACACA" transform="translate(185,260)"/>
<path d="M0 0 C3.36591866 1.44253657 5.51047079 3.33264727 8 6 C7.67 6.66 7.34 7.32 7 8 C6.01 8 5.02 8 4 8 C0 2.74285714 0 2.74285714 0 0 Z " fill="#1A1A1A" transform="translate(109,83)"/>
<path d="M0 0 C4.86896303 0.59619955 9.32790951 1.56976822 14 3 C13.67 3.66 13.34 4.32 13 5 C11.20620902 4.55005243 9.41501072 4.08975857 7.625 3.625 C6.62726563 3.36976562 5.62953125 3.11453125 4.6015625 2.8515625 C2 2 2 2 0 0 Z " fill="#434343" transform="translate(187,67)"/>
<path d="M0 0 C0.99 0.33 1.98 0.66 3 1 C2.67 2.98 2.34 4.96 2 7 C1.34 7 0.68 7 0 7 C-0.33 7.66 -0.66 8.32 -1 9 C-0.67 6.03 -0.34 3.06 0 0 Z " fill="#F1F1F1" transform="translate(129,271)"/>
<path d="M0 0 C0.99 0 1.98 0 3 0 C3 2.31 3 4.62 3 7 C1.68 6.01 0.36 5.02 -1 4 C-0.67 2.68 -0.34 1.36 0 0 Z " fill="#E2E2E2" transform="translate(189,258)"/>
<path d="M0 0 C-0.33 0.66 -0.66 1.32 -1 2 C-3.3140622 2.73075648 -5.64828869 3.40138258 -8 4 C-8.66 3.34 -9.32 2.68 -10 2 C-6.49223216 0.39644899 -3.85645121 -0.22036864 0 0 Z " fill="#343434" transform="translate(129,285)"/>
<path d="M0 0 C0.66 0.33 1.32 0.66 2 1 C0.75 2.5625 0.75 2.5625 -1 4 C-4.0417096 3.71483972 -5.39045802 2.73969465 -8 1 C-7.05125 1.020625 -6.1025 1.04125 -5.125 1.0625 C-2.09333717 1.22551826 -2.09333717 1.22551826 0 0 Z " fill="#323232" transform="translate(183,269)"/>
<path d="M0 0 C2.86724686 0.57344937 3.8614515 0.8614515 6 3 C5.34 3 4.68 3 4 3 C4 3.66 4 4.32 4 5 C2.68 4.67 1.36 4.34 0 4 C0 2.68 0 1.36 0 0 Z " fill="#171717" transform="translate(131,262)"/>
<path d="M0 0 C1.32 0.33 2.64 0.66 4 1 C3.67 2.98 3.34 4.96 3 7 C2.01 6.34 1.02 5.68 0 5 C-0.1875 2.375 -0.1875 2.375 0 0 Z " fill="#DDDDDD" transform="translate(128,258)"/>
<path d="M0 0 C-0.375 1.9375 -0.375 1.9375 -1 4 C-1.99 4.495 -1.99 4.495 -3 5 C-3 4.34 -3 3.68 -3 3 C-4.32 2.67 -5.64 2.34 -7 2 C-4.35261084 0.5393715 -3.10551666 0 0 0 Z " fill="#101010" transform="translate(189,281)"/>
<path d="M0 0 C-5.29230769 3.07692308 -5.29230769 3.07692308 -8.875 2.6875 C-9.57625 2.460625 -10.2775 2.23375 -11 2 C-7.00042393 -0.06874624 -4.43559483 -1.37656391 0 0 Z " fill="#1C1C1C" transform="translate(183,276)"/>
<path d="M0 0 C3.3 0.33 6.6 0.66 10 1 C10 1.66 10 2.32 10 3 C2.25 3.125 2.25 3.125 0 2 C0 1.34 0 0.68 0 0 Z " fill="#5B5B5B" transform="translate(144,273)"/>
<path d="M0 0 C3.15295167 3.15295167 5 6.51187917 5 11 C2.27042661 8.64264116 1.11106604 6.41866474 0 3 C0 2.01 0 1.02 0 0 Z " fill="#6A6A6A" transform="translate(37,181)"/>
</svg>
